<svg xmlns="http://www.w3.org/2000/svg" xmlns:xlink="http://www.w3.org/1999/xlink" width="73" height="52" viewBox="0 0 73 52"><defs><path id="qf3ya" d="M1075.618 987.881s0-8.21-6.02-11.197c-3.81-1.889-2.343-.444-7.021-2.377-4.677-1.93-5.785-2.562-5.785-2.562l-.04-4.428s1.75-1.323 2.298-5.51c1.092.314 1.463-1.277 1.522-2.296.065-.984.647-4.05-.691-3.774.274-2.047.488-3.898.39-4.878-.334-3.437-2.719-7.027-8.738-7.288-5.118.261-8.44 3.854-8.776 7.292-.097.98.1 2.829.373 4.878-1.337-.278-.761 2.793-.702 3.776.064 1.017.426 2.616 1.522 2.3.545 4.188 2.297 5.522 2.297 5.522l-.044 4.436c1.592.377 1.804.074 5.012 1.663 7.504 3.722 7.504 13.957 7.504 13.957h-.002v.007a2.81 2.81 0 0 1-2.207 2.739h16.846a2.257 2.257 0 0 0 2.26-2.253v-.007zm-40.286-17.96l-.045-4.866s1.925-1.457 2.526-6.059c1.202.346 1.609-1.403 1.674-2.522.071-1.08.71-4.45-.76-4.15.3-2.25.537-4.283.43-5.36-.368-3.78-2.99-7.724-9.606-8.013-5.626.29-9.277 4.237-9.646 8.017-.106 1.076.11 3.108.41 5.361-1.47-.304-.836 3.07-.772 4.153.071 1.116.469 2.875 1.674 2.526.598 4.603 2.524 6.07 2.524 6.07l-.049 4.893s-1.218.74-6.359 2.861c-5.14 2.126-3.528.44-7.716 2.517-6.618 3.282-6.618 12.31-6.618 12.31h.002l-.001.003a2.481 2.481 0 0 0 2.485 2.479h48.053a2.481 2.481 0 0 0 2.486-2.479v-.004s0-9.027-6.617-12.309c-4.188-2.077-2.575-.487-7.716-2.613-5.141-2.122-6.359-2.815-6.359-2.815z"/></defs><g><g transform="translate(-1003 -939)"><use fill="#fff" xlink:href="#qf3ya"/></g></g></svg>