<svg xmlns="http://www.w3.org/2000/svg" xmlns:xlink="http://www.w3.org/1999/xlink" width="64" height="44" viewBox="0 0 64 44"><defs><path id="e3goa" d="M1732.622 604.74l19.484-18.875c.551.543.894 1.297.894 2.134v37.998c0 .79-.311 1.502-.81 2.039zm-42.624-18.962A2.98 2.98 0 0 1 1692 585h58c.772 0 1.47.3 2.002.78L1721 609.996zm-.19 42.258a2.985 2.985 0 0 1-.808-2.04V588c0-.837.343-1.591.894-2.134l19.483 18.875zM1721 615.998l8.136-7.882 22.92 20.056a2.977 2.977 0 0 1-2.056.826h-58c-.799 0-1.52-.316-2.057-.827l22.921-20.055z"/></defs><g><g transform="translate(-1689 -585)"><use fill="#fff" xlink:href="#e3goa"/></g></g></svg>