<svg xmlns="http://www.w3.org/2000/svg" xmlns:xlink="http://www.w3.org/1999/xlink" width="64" height="56" viewBox="0 0 64 56"><defs><path id="irjma" d="M1400 933.997c-4.808 0-8.662 1.728-12.061 5.128-.002 0-.004.003-.006.004l-.001.002-1.932 2.432-1.932-2.287c-.002 0-.004-.004-.006-.005l-.001-.001c-3.4-3.4-7.253-5.273-12.061-5.273a17.885 17.885 0 0 0-12.728 5.273c-3.4 3.4-5.272 7.92-5.272 12.727 0 4.806 1.87 9.324 5.266 12.723l23.894 24.095a4 4 0 0 0 5.68 0l23.892-24.095a17.877 17.877 0 0 0 5.268-12.723 17.88 17.88 0 0 0-5.272-12.727c-3.4-3.4-7.92-5.273-12.728-5.273z"/></defs><g><g transform="translate(-1354 -934)"><use fill="#fff" xlink:href="#irjma"/></g></g></svg>