<svg xmlns="http://www.w3.org/2000/svg" xmlns:xlink="http://www.w3.org/1999/xlink" width="61" height="61" viewBox="0 0 61 61"><defs><path id="5dr9a" d="M1242.217 475.35l-27.585 11.416c-.347.15-.73.232-1.132.232-.402 0-.785-.082-1.132-.232l-27.585-11.415a2.86 2.86 0 0 1-1.783-2.65v-43.843a2.86 2.86 0 0 1 3.952-2.642h.005c.009.005.017.008.026.011l26.517 10.974 26.517-10.974.025-.01.005-.001a2.86 2.86 0 0 1 3.953 2.643V472.7a2.86 2.86 0 0 1-1.783 2.65zm-31.576-33.145l-21.922-9.07v37.656l21.922 9.07zm27.64-9.07l-21.922 9.07v37.656l21.922-9.07zm-17.386 13.135l10.484-4.765a2.86 2.86 0 0 1 2.366 5.207l-10.484 4.764v-.001a2.86 2.86 0 0 1-2.366-5.204zm0 10.483l10.484-4.763a2.86 2.86 0 0 1 2.366 5.204l-10.484 4.767a2.86 2.86 0 0 1-2.366-5.208zm0 10.486l10.484-4.767c.361-.164.761-.254 1.183-.254a2.858 2.858 0 0 1 1.183 5.461l-10.484 4.766a2.858 2.858 0 0 1-2.366-5.207zm-26.458-25.992c.423 0 .823.092 1.184.258l10.484 4.765a2.858 2.858 0 1 1-2.366 5.205v.001l-10.485-4.765a2.86 2.86 0 0 1 1.183-5.464zm0 10.485c.423 0 .823.093 1.184.258l10.484 4.763a2.86 2.86 0 1 1-2.366 5.208l-10.485-4.766a2.86 2.86 0 0 1 1.183-5.463zm0 10.486c.423 0 .823.09 1.184.255v-.001l10.484 4.767a2.858 2.858 0 1 1-2.366 5.207l-10.485-4.767a2.858 2.858 0 0 1 1.183-5.462z"/></defs><g><g transform="translate(-1183 -426)"><use fill="#fff" xlink:href="#5dr9a"/></g></g></svg>